<svg width="100%" height="100%" id="svg" viewBox="0 0 1440 600" xmlns="http://www.w3.org/2000/svg" class="transition duration-300 ease-in-out delay-150"><defs><linearGradient id="gradient" x1="0%" y1="50%" x2="100%" y2="50%"><stop offset="5%" stop-color="#ffffff88"></stop><stop offset="95%" stop-color="#64e98688"></stop></linearGradient></defs><path d="M 0,600 C 0,600 0,200 0,200 C 70.97607655502392,205.8181818181818 141.95215311004785,211.63636363636365 239,207 C 336.04784688995215,202.36363636363635 459.16746411483257,187.27272727272728 573,169 C 686.8325358851674,150.72727272727272 791.3779904306222,129.27272727272728 878,138 C 964.6220095693778,146.72727272727272 1033.3205741626793,185.63636363636365 1124,201 C 1214.6794258373207,216.36363636363635 1327.3397129186603,208.1818181818182 1440,200 C 1440,200 1440,600 1440,600 Z" stroke="none" stroke-width="0" fill="url(#gradient)" class="transition-all duration-300 ease-in-out delay-150 path-0"></path><defs><linearGradient id="gradient" x1="0%" y1="50%" x2="100%" y2="50%"><stop offset="5%" stop-color="#ffffffff"></stop><stop offset="95%" stop-color="#64e986ff"></stop></linearGradient></defs><path d="M 0,600 C 0,600 0,400 0,400 C 95.76076555023923,393.799043062201 191.52153110047846,387.59808612440196 295,379 C 398.47846889952154,370.40191387559804 509.67464114832535,359.4066985645933 595,351 C 680.3253588516747,342.5933014354067 739.77990430622,336.7751196172249 830,352 C 920.22009569378,367.2248803827751 1041.2057416267942,403.49282296650716 1148,415 C 1254.7942583732058,426.50717703349284 1347.3971291866028,413.2535885167464 1440,400 C 1440,400 1440,600 1440,600 Z" stroke="none" stroke-width="0" fill="url(#gradient)" class="transition-all duration-300 ease-in-out delay-150 path-1"></path></svg>